<svg width="22" height="34" viewBox="0 0 22 34" fill="none" xmlns="http://www.w3.org/2000/svg">
<g id="Subtract">
<mask id="path-1-inside-1_54_5879" fill="white">
<path fill-rule="evenodd" clip-rule="evenodd" d="M21.8945 11.5695C21.8945 13.5716 21.3515 15.4469 20.4047 17.0561L12.6547 33.0123C12.0389 34.2801 10.2326 34.2801 9.61683 33.0123L2.30076 17.9495C0.994813 16.1598 0.224121 13.9546 0.224121 11.5695C0.224121 5.58534 5.07521 0.734253 11.0593 0.734253C17.0434 0.734253 21.8945 5.58534 21.8945 11.5695ZM11.1354 14.1635C13.5375 14.1635 15.4848 12.2163 15.4848 9.81419C15.4848 7.41211 13.5375 5.46484 11.1354 5.46484C8.73335 5.46484 6.78608 7.41211 6.78608 9.81419C6.78608 12.2163 8.73335 14.1635 11.1354 14.1635Z"/>
</mask>
<path fill-rule="evenodd" clip-rule="evenodd" d="M21.8945 11.5695C21.8945 13.5716 21.3515 15.4469 20.4047 17.0561L12.6547 33.0123C12.0389 34.2801 10.2326 34.2801 9.61683 33.0123L2.30076 17.9495C0.994813 16.1598 0.224121 13.9546 0.224121 11.5695C0.224121 5.58534 5.07521 0.734253 11.0593 0.734253C17.0434 0.734253 21.8945 5.58534 21.8945 11.5695ZM11.1354 14.1635C13.5375 14.1635 15.4848 12.2163 15.4848 9.81419C15.4848 7.41211 13.5375 5.46484 11.1354 5.46484C8.73335 5.46484 6.78608 7.41211 6.78608 9.81419C6.78608 12.2163 8.73335 14.1635 11.1354 14.1635Z" fill="#D94B4B"/>
<path d="M20.4047 17.0561L19.4345 16.4852L19.4117 16.5239L19.3921 16.5643L20.4047 17.0561ZM12.6547 33.0123L11.6421 32.5204L12.6547 33.0123ZM9.61683 33.0123L10.6294 32.5204L9.61683 33.0123ZM2.30076 17.9495L3.31337 17.4577L3.26942 17.3672L3.21013 17.286L2.30076 17.9495ZM21.375 17.6269C22.4208 15.8494 23.0203 13.7777 23.0203 11.5695H20.7688C20.7688 13.3654 20.2822 15.0443 19.4345 16.4852L21.375 17.6269ZM13.6673 33.5041L21.4173 17.5479L19.3921 16.5643L11.6421 32.5204L13.6673 33.5041ZM8.60422 33.5041C9.63053 35.6171 12.641 35.6171 13.6673 33.5041L11.6421 32.5204C11.4368 32.943 10.8347 32.943 10.6294 32.5204L8.60422 33.5041ZM1.28815 18.4414L8.60422 33.5041L10.6294 32.5204L3.31337 17.4577L1.28815 18.4414ZM-0.901615 11.5695C-0.901615 14.2011 -0.0504244 16.6372 1.39138 18.6131L3.21013 17.286C2.04005 15.6824 1.34986 13.7082 1.34986 11.5695H-0.901615ZM11.0593 -0.391483C4.45348 -0.391483 -0.901615 4.96361 -0.901615 11.5695H1.34986C1.34986 6.20707 5.69693 1.85999 11.0593 1.85999V-0.391483ZM23.0203 11.5695C23.0203 4.96361 17.6652 -0.391483 11.0593 -0.391483V1.85999C16.4217 1.85999 20.7688 6.20707 20.7688 11.5695H23.0203ZM14.359 9.81419C14.359 11.5945 12.9158 13.0378 11.1354 13.0378V15.2893C14.1592 15.2893 16.6105 12.838 16.6105 9.81419H14.359ZM11.1354 6.59058C12.9158 6.59058 14.359 8.03384 14.359 9.81419H16.6105C16.6105 6.79039 14.1592 4.33911 11.1354 4.33911V6.59058ZM7.91182 9.81419C7.91182 8.03384 9.35508 6.59058 11.1354 6.59058V4.33911C8.11162 4.33911 5.66035 6.79039 5.66035 9.81419H7.91182ZM11.1354 13.0378C9.35508 13.0378 7.91182 11.5945 7.91182 9.81419H5.66035C5.66035 12.838 8.11163 15.2893 11.1354 15.2893V13.0378Z" fill="black" mask="url(#path-1-inside-1_54_5879)"/>
</g>
</svg>
