<svg width="27" height="27" viewBox="0 0 27 27" fill="none" xmlns="http://www.w3.org/2000/svg">
<path d="M11.5026 11.2056C11.5026 11.9248 10.9196 12.5079 10.2003 12.5079C9.48103 12.5079 8.89795 11.9248 8.89795 11.2056C8.89795 10.4863 9.48103 9.9032 10.2003 9.9032C10.9196 9.9032 11.5026 10.4863 11.5026 11.2056Z" fill="#D8B18E" fill-opacity="0.7"/>
<path d="M18.1011 11.2055C18.1011 11.9239 17.5187 12.5063 16.8003 12.5063C16.0819 12.5063 15.4995 11.9239 15.4995 11.2055C15.4995 10.4871 16.0819 9.90479 16.8003 9.90479C17.5187 9.90479 18.1011 10.4871 18.1011 11.2055Z" fill="#D8B18E" fill-opacity="0.7"/>
<path d="M9.55574 15.7371C9.25449 15.2852 8.64396 15.1631 8.19208 15.4643C7.7402 15.7655 7.6181 16.3761 7.91935 16.828C10.5744 20.8106 16.4266 20.8106 19.0816 16.828C19.3829 16.3761 19.2609 15.7655 18.809 15.4643C18.3571 15.1631 17.7465 15.2852 17.4453 15.7371C15.5686 18.5519 11.4323 18.5519 9.55574 15.7371Z" fill="#D8B18E" fill-opacity="0.7"/>
<path fill-rule="evenodd" clip-rule="evenodd" d="M13.5 1.60559C7.03826 1.60559 1.79999 6.84386 1.79999 13.3056C1.79999 19.7674 7.03826 25.0056 13.5 25.0056C19.9618 25.0056 25.2 19.7674 25.2 13.3056C25.2 6.84386 19.9618 1.60559 13.5 1.60559ZM3.76669 13.3056C3.76669 7.93004 8.12444 3.5723 13.5 3.5723C18.8755 3.5723 23.2333 7.93004 23.2333 13.3056C23.2333 18.6811 18.8755 23.0389 13.5 23.0389C8.12444 23.0389 3.76669 18.6811 3.76669 13.3056Z" fill="#D8B18E" fill-opacity="0.7"/>
</svg>
