<svg width="26" height="27" viewBox="0 0 26 27" fill="none" xmlns="http://www.w3.org/2000/svg">
<path d="M14.4364 2.24477C13.4877 2.0592 12.5122 2.0592 11.5637 2.24477C10.2201 2.50762 8.99645 3.26637 7.00729 4.49976L6.66816 4.70997C4.87459 5.82124 3.77075 6.50517 2.98161 7.47064C2.42374 8.15318 1.99148 8.92902 1.70487 9.76216C1.29945 10.9407 1.29966 12.2375 1.30001 14.3447L1.30002 20.4544C1.30002 23.2441 3.56552 25.5056 6.36015 25.5056C8.59062 25.5056 10.3988 23.7007 10.3988 21.4742V18.585C10.3988 17.151 11.5634 15.9884 13 15.9884C14.4366 15.9884 15.6012 17.151 15.6012 18.585V21.4742C15.6012 23.7007 17.4093 25.5056 19.6399 25.5056C22.4345 25.5056 24.7 23.2441 24.7 20.4544V14.3448C24.7002 12.2375 24.7005 10.9407 24.295 9.76216C24.0085 8.92902 23.5763 8.15318 23.0183 7.47064C22.2292 6.50517 21.1254 5.82124 19.3318 4.70996L18.9927 4.49976C17.0035 3.26637 15.7798 2.50762 14.4364 2.24477Z" fill="#AC7544"/>
</svg>
