<svg width="26" height="27" viewBox="0 0 26 27" fill="none" xmlns="http://www.w3.org/2000/svg">
<path fill-rule="evenodd" clip-rule="evenodd" d="M14.0616 3.84761C13.3605 3.71045 12.6395 3.71045 11.9384 3.84761C10.9886 4.03344 10.0834 4.57678 7.85596 5.95736C5.85042 7.2004 5.04927 7.71166 4.49115 8.39449C4.07882 8.89897 3.75932 9.47242 3.54747 10.0882C3.26074 10.9217 3.24824 11.8708 3.24824 14.2273V20.1489C3.24824 21.8645 4.64151 23.2554 6.36022 23.2554C7.51475 23.2554 8.45067 22.3211 8.45067 21.1686V18.2795C8.45067 15.7714 10.4875 13.7382 13 13.7382C15.5126 13.7382 17.5494 15.7714 17.5494 18.2795V21.1686C17.5494 22.3211 18.4854 23.2554 19.6399 23.2554C21.3585 23.2554 22.7519 21.8645 22.7519 20.1489V14.2273C22.7519 11.8708 22.7394 10.9217 22.4526 10.0882C22.2408 9.47242 21.9213 8.89897 21.5089 8.39449C20.9508 7.71166 20.1497 7.2004 18.1441 5.95736C15.9167 4.57678 15.0115 4.03344 14.0616 3.84761ZM11.5637 1.93923C12.5122 1.75366 13.4878 1.75366 14.4364 1.93923C15.7798 2.20207 17.0035 2.96083 18.9928 4.19422C19.0517 4.2308 19.1115 4.26781 19.1718 4.30523C19.2257 4.33868 19.2792 4.37174 19.3318 4.40443C21.1254 5.5157 22.2293 6.19963 23.0184 7.1651C23.5763 7.84764 24.0086 8.62348 24.2951 9.45662C24.7006 10.6351 24.7003 11.932 24.7 14.0393C24.7 14.1012 24.7 14.164 24.7 14.2273V20.1489C24.7 22.9386 22.4345 25.2 19.6399 25.2C17.4094 25.2 15.6012 23.3951 15.6012 21.1686V18.2795C15.6012 16.8455 14.4367 15.6829 13 15.6829C11.5634 15.6829 10.3988 16.8455 10.3988 18.2795V21.1686C10.3988 23.3951 8.59068 25.2 6.36022 25.2C3.56558 25.2 1.30008 22.9386 1.30008 20.1489V14.2273C1.30008 14.164 1.30007 14.1012 1.30007 14.0392C1.29972 11.932 1.29951 10.6351 1.70493 9.45662C1.99154 8.62348 2.4238 7.84764 2.98167 7.1651C3.77081 6.19963 4.87465 5.5157 6.66822 4.40443C6.72098 4.37174 6.77434 4.33868 6.82831 4.30523C6.88868 4.26781 6.94836 4.2308 7.00736 4.19422C8.99651 2.96083 10.2202 2.20207 11.5637 1.93923Z" fill="#D8B18E" fill-opacity="0.7"/>
</svg>
