<svg width="26" height="26" viewBox="0 0 26 26" fill="none" xmlns="http://www.w3.org/2000/svg">
<path fill-rule="evenodd" clip-rule="evenodd" d="M5.61573 9.19574C5.88517 8.75513 6.4676 8.61226 6.91665 8.87662L7.38384 9.15167C8.82625 10.0009 9.84852 10.6014 10.7051 10.9966C11.5423 11.3827 12.1506 11.5378 12.7501 11.5378C13.3497 11.5378 13.958 11.3827 14.7951 10.9966C15.6517 10.6014 16.674 10.0009 18.1164 9.15167L18.5835 8.87662C19.0326 8.61226 19.6151 8.75513 19.8845 9.19574C20.1539 9.63635 20.0083 10.2078 19.5593 10.4722L19.0488 10.7728C17.6594 11.5907 16.5555 12.2406 15.6019 12.6805C14.619 13.1339 13.7264 13.3986 12.7501 13.3986C11.7739 13.3986 10.8812 13.1339 9.89829 12.6805C8.94472 12.2406 7.84085 11.5907 6.45145 10.7728L5.94097 10.4722C5.49192 10.2078 5.34631 9.63635 5.61573 9.19574Z" fill="#D8B18E" fill-opacity="0.7"/>
<path fill-rule="evenodd" clip-rule="evenodd" d="M10.4069 3.09546H15.0938C16.9626 3.09545 18.4433 3.09543 19.6208 3.22192C20.8282 3.35162 21.8299 3.62346 22.6886 4.24433C23.174 4.5953 23.6027 5.01599 23.9604 5.49226C24.5932 6.33479 24.8702 7.31772 25.0024 8.50249C25.1313 9.65782 25.1313 11.1107 25.1313 12.9444V13.0561C25.1313 14.8898 25.1313 16.3426 25.0024 17.498C24.8702 18.6827 24.5932 19.6656 23.9604 20.5082C23.6027 20.9845 23.174 21.4052 22.6886 21.7562C21.8299 22.3769 20.8282 22.6488 19.6208 22.7786C18.4433 22.905 16.9626 22.905 15.0938 22.905H10.4069C8.53807 22.905 7.05738 22.905 5.87994 22.7786C4.67249 22.6488 3.67073 22.3769 2.81208 21.7562C2.32669 21.4052 1.89794 20.9845 1.54026 20.5082C0.907498 19.6656 0.630457 18.6827 0.498267 17.498C0.369361 16.3426 0.369373 14.8898 0.369385 13.0561V12.9444C0.369373 11.1107 0.369361 9.65781 0.498267 8.50249C0.630457 7.31772 0.907498 6.33479 1.54026 5.49226C1.89794 5.01599 2.32669 4.5953 2.81208 4.24433C3.67073 3.62346 4.67249 3.35162 5.87994 3.22192C7.05738 3.09543 8.53806 3.09545 10.4069 3.09546ZM6.08632 5.07163C5.04221 5.18379 4.41644 5.39569 3.9371 5.7423C3.60499 5.98244 3.31164 6.27028 3.0669 6.59615C2.71366 7.06649 2.4977 7.6805 2.3834 8.705C2.26711 9.74724 2.26578 11.0982 2.26578 13.0002C2.26578 14.9022 2.26711 16.2532 2.3834 17.2954C2.4977 18.3199 2.71366 18.9339 3.0669 19.4043C3.31164 19.7301 3.60499 20.018 3.9371 20.2582C4.41644 20.6047 5.04221 20.8167 6.08632 20.9289C7.14852 21.0429 8.52535 21.0443 10.4638 21.0443H15.0368C16.9753 21.0443 18.3521 21.0429 19.4144 20.9289C20.4585 20.8167 21.0842 20.6047 21.5636 20.2582C21.8956 20.018 22.1891 19.7301 22.4337 19.4043C22.7871 18.9339 23.003 18.3199 23.1173 17.2954C23.2335 16.2532 23.2349 14.9022 23.2349 13.0002C23.2349 11.0982 23.2335 9.74724 23.1173 8.705C23.003 7.6805 22.7871 7.06649 22.4337 6.59615C22.1891 6.27028 21.8956 5.98244 21.5636 5.7423C21.0842 5.39569 20.4585 5.18379 19.4144 5.07163C18.3521 4.95753 16.9753 4.95623 15.0368 4.95623H10.4638C8.52535 4.95623 7.14852 4.95753 6.08632 5.07163Z" fill="#D8B18E" fill-opacity="0.7"/>
</svg>
