<svg width="27" height="26" viewBox="0 0 27 26" fill="none" xmlns="http://www.w3.org/2000/svg">
<path fill-rule="evenodd" clip-rule="evenodd" d="M13.5 1.30005C7.03832 1.30005 1.80005 6.53832 1.80005 13C1.80005 19.4618 7.03832 24.7 13.5 24.7C19.9618 24.7 25.2 19.4618 25.2 13C25.2 6.53832 19.9618 1.30005 13.5 1.30005ZM11.5024 10.9001C11.5024 11.6193 10.9193 12.2024 10.2 12.2024C9.48073 12.2024 8.89765 11.6193 8.89765 10.9001C8.89765 10.1808 9.48073 9.5977 10.2 9.5977C10.9193 9.5977 11.5024 10.1808 11.5024 10.9001ZM18.1007 10.9001C18.1007 11.6184 17.5185 12.2008 16.8001 12.2008C16.0817 12.2008 15.4993 11.6184 15.4993 10.9001C15.4993 10.1817 16.0817 9.59931 16.8001 9.59931C17.5185 9.59931 18.1007 10.1817 18.1007 10.9001ZM8.19167 15.1587C8.64355 14.8575 9.25408 14.9796 9.55533 15.4314C11.4319 18.2463 15.5682 18.2463 17.4449 15.4314C17.7461 14.9796 18.3566 14.8575 18.8085 15.1587C19.2603 15.4599 19.3825 16.0705 19.0812 16.5224C16.4262 20.5049 10.574 20.5049 7.91893 16.5224C7.61768 16.0705 7.73979 15.4599 8.19167 15.1587Z" fill="#AC7544"/>
</svg>
