<svg width="26" height="25" viewBox="0 0 26 25" fill="none" xmlns="http://www.w3.org/2000/svg">
<path fill-rule="evenodd" clip-rule="evenodd" d="M15.0938 2.47626H10.4069C8.53807 2.47625 7.05738 2.47623 5.87994 2.60272C4.67249 2.73243 3.67073 3.00427 2.81208 3.62512C2.32669 3.9761 1.89794 4.39679 1.54026 4.87306C0.907498 5.71559 0.630458 6.69852 0.498267 7.88329C0.369363 9.03861 0.369373 10.4915 0.369385 12.3252V12.4369C0.369373 14.2706 0.369363 15.7234 0.498267 16.8788C0.630458 18.0635 0.907498 19.0464 1.54026 19.889C1.89794 20.3652 2.32669 20.786 2.81208 21.137C3.67073 21.7577 4.67249 22.0296 5.87994 22.1594C7.05738 22.2858 8.53806 22.2858 10.4069 22.2858H15.0938C16.9626 22.2858 18.4433 22.2858 19.6208 22.1594C20.8282 22.0296 21.8299 21.7577 22.6886 21.137C23.174 20.786 23.6027 20.3652 23.9604 19.889C24.5932 19.0464 24.8702 18.0635 25.0024 16.8788C25.1313 15.7234 25.1313 14.2706 25.1313 12.4369V12.3252C25.1313 10.4915 25.1313 9.03862 25.0024 7.88329C24.8702 6.69852 24.5932 5.71559 23.9604 4.87306C23.6027 4.39679 23.174 3.9761 22.6886 3.62512C21.8299 3.00427 20.8282 2.73243 19.6208 2.60272C18.4433 2.47623 16.9626 2.47625 15.0938 2.47626ZM6.91686 8.25761C6.46781 7.99325 5.88538 8.13611 5.61594 8.57672C5.34652 9.01734 5.49213 9.58883 5.94118 9.8532L6.45166 10.1537C7.84106 10.9717 8.94493 11.6216 9.8985 12.0615C10.8814 12.5149 11.7741 12.7796 12.7503 12.7796C13.7266 12.7796 14.6192 12.5149 15.6022 12.0615C16.5557 11.6216 17.6596 10.9717 19.049 10.1537L19.5595 9.8532C20.0085 9.58883 20.1541 9.01734 19.8847 8.57672C19.6153 8.13611 19.0328 7.99325 18.5837 8.25761L18.1166 8.53266C16.6742 9.38184 15.6519 9.9824 14.7953 10.3775C13.9582 10.7637 13.3499 10.9188 12.7503 10.9188C12.1508 10.9188 11.5425 10.7637 10.7053 10.3775C9.84873 9.9824 8.82646 9.38184 7.38405 8.53266L6.91686 8.25761Z" fill="#AC7544"/>
</svg>
