<svg width="20" height="20" viewBox="0 0 20 20" fill="none" xmlns="http://www.w3.org/2000/svg">
<path fill-rule="evenodd" clip-rule="evenodd" d="M10.3529 1.25562C15.0749 1.25562 18.9029 5.08359 18.9029 9.80563C18.9029 14.5277 15.0749 18.3556 10.3529 18.3556C5.6308 18.3556 1.80286 14.5277 1.80286 9.80563C1.80286 5.08359 5.6308 1.25562 10.3529 1.25562ZM13.5066 9.57153C13.3167 9.97369 12.9942 10.4573 12.6189 11.0203L12.3323 11.4501C12.0255 11.9104 11.7554 12.3156 11.4989 12.5995C11.2262 12.9012 10.8623 13.1874 10.3528 13.1874C9.8432 13.1874 9.47935 12.9012 9.2067 12.5995C8.9501 12.3156 8.68002 11.9104 8.37326 11.4501L8.08674 11.0203C7.7113 10.4573 7.38887 9.97369 7.19897 9.57153C7.00384 9.15834 6.85516 8.63961 7.13057 8.12496C7.40607 7.61031 7.92011 7.44625 8.37212 7.37943C8.81217 7.31438 9.39338 7.31442 10.07 7.31446H10.6356C11.3122 7.31442 11.8934 7.31438 12.3334 7.37943C12.7855 7.44625 13.2995 7.61031 13.575 8.12496C13.8504 8.63962 13.7017 9.15834 13.5066 9.57153Z" fill="#AC7544"/>
</svg>
