<svg width="20" height="20" viewBox="0 0 20 20" fill="none" xmlns="http://www.w3.org/2000/svg">
<g clip-path="url(#clip0_1135_5231)">
<path d="M20 10C20 4.47715 15.5228 0 10 0C4.47715 0 0 4.47715 0 10C0 15.5228 4.47715 20 10 20C15.5228 20 20 15.5228 20 10Z" fill="#AC7544"/>
<path d="M6.70268 5.3626C7.76312 4.95488 9.02899 5.08776 9.96811 5.98517C10.9072 5.08776 12.1731 4.95488 13.2336 5.3626C14.4159 5.81719 15.3649 6.94971 15.3649 8.43993C15.3649 9.57773 14.8518 10.6034 14.1491 11.5043C13.4465 12.4051 12.5278 13.2147 11.6606 13.9244L11.641 13.9405C11.3164 14.2061 11.0439 14.4291 10.8013 14.5825C10.5444 14.7449 10.2795 14.857 9.96811 14.857C9.65672 14.857 9.39185 14.7449 9.13493 14.5825C8.89237 14.4291 8.61985 14.2061 8.29528 13.9405L8.27559 13.9244C7.40841 13.2147 6.48976 12.4051 5.78716 11.5043C5.08444 10.6034 4.57129 9.57773 4.57129 8.43993C4.57129 6.94971 5.52033 5.81719 6.70268 5.3626Z" fill="#F7F3EF"/>
</g>
<defs>
<clipPath id="clip0_1135_5231">
<rect width="20" height="20" fill="white"/>
</clipPath>
</defs>
</svg>
